PathFileType	4	(X/Y/Z)	 s04c0202.trc
DataRate	CameraRate	NumFrames	NumMarkers	Units	OrigDataRate	OrigDataStartFrame	OrigNumFrames
200	200	4	50	mm	200	501	2000
Frame#	Time	racr			lacr			c7			jug			rlel			rdr			llel			ldr			s2			lic			ric			lasi			rasi			rpsi			lpsi			rgt			lgt			rth1			rth2			rth3			rth4			rlfc			rmfc			rsh1			rsh2			rsh3			rsh4			rlmal			rmmal			rcal			rtoe			rmt5			lth1			lth2			lth4			lth3			llfc			lmfc			lsh1			lsh2			lsh3			lsh4			llmal			lmmal			lcal			ltoe			lmt5			SBIKE			LBIKE			RBIKE			
		X1	Y1	Z1	X2	Y2	Z2	X3	Y3	Z3	X4	Y4	Z4	X5	Y5	Z5	X6	Y6	Z6	X7	Y7	Z7	X8	Y8	Z8	X9	Y9	Z9	X10	Y10	Z10	X11	Y11	Z11	X12	Y12	Z12	X13	Y13	Z13	X14	Y14	Z14	X15	Y15	Z15	X16	Y16	Z16	X17	Y17	Z17	X18	Y18	Z18	X19	Y19	Z19	X20	Y20	Z20	X21	Y21	Z21	X22	Y22	Z22	X23	Y23	Z23	X24	Y24	Z24	X25	Y25	Z25	X26	Y26	Z26	X27	Y27	Z27	X28	Y28	Z28	X29	Y29	Z29	X30	Y30	Z30	X31	Y31	Z31	X32	Y32	Z32	X33	Y33	Z33	X34	Y34	Z34	X35	Y35	Z35	X36	Y36	Z36	X37	Y37	Z37	X38	Y38	Z38	X39	Y39	Z39	X40	Y40	Z40	X41	Y41	Z41	X42	Y42	Z42	X43	Y43	Z43	X44	Y44	Z44	X45	Y45	Z45	X46	Y46	Z46	X47	Y47	Z47	X48	Y48	Z48	X49	Y49	Z49	X50	Y50	Z50	
501	2.5050	468.567722	1454.315474	-156.606159	504.076078	1446.277175	-387.437664	443.121537	1490.775485	-276.165744	454.488060	1336.791926	-277.066177	477.025125	1155.208713	-10.529039	801.960196	1030.688754	-183.654047	499.197406	1168.307079	-523.368868	648.970401	846.816269	-474.166096	-99.015476	1184.924401	-285.107715	68.404290	1196.318993	-430.474718	50.237714	1208.212774	-114.765960	104.327591	1153.449752	-383.637595	92.916376	1157.727977	-156.453192	-78.401615	1233.401893	-239.127487	-70.099437	1233.241496	-315.525041	-4.124134	1149.958538	-91.894198	36.531436	1101.070537	-449.150864	117.479738	1049.554897	-69.051399	197.879720	1012.573262	-68.304916	250.839844	946.312954	-59.381430	219.152944	1037.953557	-85.298659	336.171184	831.098283	-72.723822	332.626161	814.631109	-187.793916	243.829496	749.043190	-62.804191	196.291437	674.560392	-88.372176	119.079013	641.359963	-107.013224	222.578956	655.557303	-109.289985	17.091299	530.988232	-132.003121	51.259755	529.680220	-213.769052	-53.986127	533.586504	-184.768341	201.402410	371.768318	-143.420881	123.791870	385.565494	-101.515932	91.297671	1025.492877	-459.748396	164.540947	978.939467	-457.182231	190.305495	1003.346166	-448.034785	205.786060	899.880566	-452.183777	299.053500	766.058863	-430.883035	319.073162	741.877365	-318.259064	305.719863	638.727758	-455.775095	319.431332	554.520255	-438.729089	292.241157	470.305164	-443.077339	345.806761	554.453410	-408.325727	278.252790	322.250639	-445.615518	268.819910	320.603269	-354.974647	197.771289	290.116551	-412.484887	500.191388	297.799424	-393.530810	436.454697	259.294398	-461.105106	-142.092167	919.678718	-289.441368	-3.278740	85.607080	-484.669793	-15.023683	80.411212	-84.217099	
502	2.5100	467.981201	1454.245336	-156.354724	503.784116	1446.243772	-387.487402	442.618280	1490.901688	-275.979098	454.002510	1336.817095	-276.908113	476.901534	1155.210414	-10.418376	801.971903	1030.757843	-183.618152	499.042878	1168.296478	-523.219642	648.956891	846.818948	-474.162109	-98.931637	1184.499396	-285.676629	68.523293	1195.984962	-430.935409	49.845379	1208.418616	-115.231033	104.582028	1153.312523	-384.214691	92.751777	1158.027123	-156.729760	-78.541977	1233.139883	-239.758968	-70.047447	1232.824812	-316.172646	-4.256585	1150.237647	-92.222802	36.455080	1100.267417	-449.232937	117.788271	1050.859498	-69.114969	198.573535	1014.585233	-68.194162	252.076245	948.849869	-58.917710	219.278585	1039.494442	-85.782352	338.434417	834.313099	-72.047065	334.912349	817.705337	-187.022556	246.087754	752.448828	-62.221382	198.365829	678.145867	-87.859197	121.026439	645.159570	-106.594972	224.628707	659.094310	-108.813587	18.814187	535.139130	-131.872412	53.017898	533.846097	-213.569150	-52.252174	537.609972	-184.583998	203.113695	375.842023	-143.410535	125.538125	389.773680	-101.387557	90.770021	1024.233520	-460.006944	163.591889	976.971198	-457.415557	189.553738	1001.151171	-448.213162	204.027608	897.568183	-452.293366	296.095240	762.690233	-431.039958	315.689479	737.928974	-318.454945	302.990952	635.143116	-455.918640	316.918353	551.034619	-438.839569	290.103508	466.760037	-443.292731	343.285511	551.123369	-408.376673	276.658910	318.609193	-445.788635	267.293640	316.789827	-355.073571	196.180002	286.596387	-412.746927	498.591495	293.508690	-393.450580	434.841216	255.265425	-461.126951	-142.285525	919.392649	-290.196324	-3.284459	85.603527	-484.672504	-15.028963	80.414240	-84.211454	
503	2.5150	467.354482	1454.138731	-156.087426	503.388988	1446.164994	-387.442228	442.099924	1490.992168	-275.714122	453.494736	1336.897733	-276.727466	476.773486	1155.157407	-10.331613	801.937702	1030.682968	-183.627995	498.819886	1168.239430	-523.080517	648.941169	846.831942	-474.144972	-98.828820	1183.985267	-286.258085	68.632241	1195.630398	-431.458128	49.492608	1208.602422	-115.620129	104.881882	1153.272445	-384.919668	92.656125	1158.339880	-157.084521	-78.646125	1232.680414	-240.267509	-70.092105	1232.239027	-316.525199	-4.304860	1150.524633	-92.572906	36.341160	1099.421952	-449.374111	118.234695	1052.125445	-69.134558	199.344195	1016.668647	-68.054022	253.384688	951.396784	-58.441183	219.842789	1041.520275	-85.859213	340.712527	837.561911	-71.441019	337.461377	820.811379	-186.434137	248.350429	755.936996	-61.676354	200.537799	681.672659	-87.455928	123.109262	648.942032	-106.290407	226.765754	662.568725	-108.470229	20.722111	539.074068	-131.708347	54.996010	537.903845	-213.364209	-50.402356	541.838160	-184.473963	204.973562	379.989818	-143.390473	127.419295	393.760617	-101.296161	90.195419	1022.999798	-460.271808	162.560157	975.045039	-457.629327	188.836889	999.152454	-448.718177	202.297184	895.329286	-452.529716	293.148264	759.337069	-431.364621	312.200032	734.606852	-318.671856	300.209705	631.569018	-456.224862	314.488432	547.639851	-439.221739	287.867801	463.091229	-443.526936	340.701849	547.558619	-408.607021	274.891406	314.942346	-445.972767	265.401073	313.167230	-355.346133	194.501885	283.009036	-412.917406	496.929792	289.246500	-393.389731	433.110819	251.088735	-461.181357	-142.224775	919.289851	-290.414745	-3.278233	85.613776	-484.674660	-15.024347	80.410930	-84.217873	
504	2.5200	466.823657	1454.011940	-155.725343	503.028411	1446.108880	-387.352994	441.625163	1491.061960	-275.463639	452.933120	1336.914203	-276.537835	476.674730	1155.036895	-10.276945	801.924753	1030.730522	-183.627877	498.544580	1168.230317	-522.976901	649.055858	846.765101	-474.263925	-98.239025	1183.028217	-286.497833	68.788578	1195.217821	-431.968275	49.131428	1208.711175	-116.143682	105.341032	1153.177265	-385.856198	92.583239	1158.609566	-157.483242	-78.790327	1232.335159	-240.917300	-70.103523	1231.742150	-316.614793	-4.229350	1150.762160	-92.919883	36.240325	1098.635158	-449.545347	118.755553	1053.462354	-69.197517	200.127119	1018.749429	-67.983628	254.801991	954.023970	-58.002456	220.487888	1043.895784	-85.679773	343.113267	840.981976	-70.672065	340.105959	824.144451	-185.792433	250.692277	759.390146	-61.156897	202.688517	685.309638	-87.036447	125.229634	652.752172	-105.960066	228.885601	666.245285	-108.017428	22.723992	543.169650	-131.593770	56.916960	542.043020	-213.269739	-48.369705	545.809102	-184.299003	206.987045	384.066875	-143.308016	129.445299	397.917118	-101.260225	89.645938	1021.814317	-460.598759	161.552860	973.096127	-458.002980	188.077371	997.024674	-448.994139	200.581482	893.052169	-452.888173	290.171833	755.964955	-431.744897	308.773201	731.377707	-319.022233	297.305182	628.052679	-456.569899	311.799723	544.017034	-439.454483	285.479649	459.522419	-443.804531	337.992036	544.201989	-408.780389	273.047448	311.235694	-446.130455	263.728321	309.265908	-355.448051	192.638301	279.549664	-413.118380	495.065235	284.945793	-393.409715	431.208392	246.995478	-461.217911	-142.279000	919.140676	-290.868795	-3.302598	85.625168	-484.671684	-15.026410	80.418228	-84.214651	
